<svg width="25" height="25" viewBox="0 0 25 25" fill="none" xmlns="http://www.w3.org/2000/svg">
<path d="M19.5605 2.25588C18.8672 2.52932 18.0762 3.27151 17.7246 3.97463C17.4707 4.47268 17.4414 4.64846 17.4316 5.41994C17.4316 6.4844 17.6855 7.12893 18.3887 7.83205C19.0527 8.48635 19.5996 8.72072 20.6055 8.76955C21.6895 8.81838 22.3828 8.57424 23.1055 7.89065C23.8379 7.19729 24.1602 6.43557 24.1602 5.41018C24.1602 4.70705 24.1211 4.53127 23.8477 3.97463C23.4863 3.25197 22.9102 2.6758 22.1875 2.34377C21.5137 2.02151 20.2441 1.97268 19.5605 2.25588ZM21.6992 2.92971C22.4121 3.19338 22.8906 3.62307 23.1934 4.24807C23.6719 5.27346 23.4863 6.51369 22.7246 7.30471C22.2461 7.81252 21.7285 8.03713 20.918 8.08596C20.2734 8.12502 20.1562 8.10549 19.5898 7.82229C18.6914 7.38283 18.1836 6.65041 18.0957 5.66408C18.0176 4.84377 18.2715 4.17971 18.8867 3.55471C19.6875 2.75393 20.6641 2.53908 21.6992 2.92971Z" fill="#1AD079"/>
<path d="M20.5078 3.46682C20.5078 3.60354 20.4688 3.71096 20.4199 3.71096C20.2539 3.71096 19.834 4.21877 19.7754 4.49221C19.6777 4.93166 19.9512 5.33205 20.5371 5.62502C21.2305 5.97658 21.3477 6.18166 21.0254 6.49416C20.8594 6.66018 20.3027 6.66018 19.9023 6.49416C19.7559 6.43557 19.7266 6.47463 19.7266 6.71877C19.7266 6.99221 19.7656 7.03127 20.1465 7.09963C20.4688 7.16799 20.5664 7.22658 20.5859 7.40237C20.6348 7.72463 21.0938 7.7051 21.0938 7.38283C21.0938 7.22658 21.1621 7.11916 21.2988 7.0801C21.5234 7.00198 21.875 6.4844 21.875 6.22073C21.875 5.8301 21.5723 5.46877 20.9961 5.1758C20.3711 4.8633 20.2637 4.64846 20.5664 4.34573C20.6836 4.22854 20.8301 4.19924 21.0938 4.24807C21.416 4.30666 21.4648 4.28713 21.5137 4.09182C21.5918 3.79885 21.5234 3.71096 21.2305 3.71096C21.0449 3.71096 20.9961 3.66213 20.9961 3.46682C20.9961 3.27151 20.9473 3.22268 20.752 3.22268C20.5566 3.22268 20.5078 3.27151 20.5078 3.46682Z" fill="#1AD079"/>
<path d="M17.5293 10.1172C16.8848 10.6348 15.9961 11.3379 15.5566 11.6895L14.7461 12.3145L13.8477 11.9336C11.7383 11.0352 9.79492 10.2539 9.67773 10.2539C9.57031 10.2539 8.68164 10.8692 5.71289 13.0078C5.49805 13.1543 5.04883 13.4863 4.7168 13.7207C4.25781 14.0528 4.10156 14.2188 4.10156 14.3945C4.10156 14.5215 4.16992 14.6582 4.25781 14.6875C4.44336 14.7559 4.56055 14.6973 6.00586 13.6524C6.60156 13.2324 7.65625 12.4707 8.35938 11.9629C9.07227 11.4551 9.69727 11.0352 9.76562 11.0352C9.82422 11.0352 10.9961 11.5039 12.373 12.0703L14.8535 13.1055L15.2051 12.8613C16.4355 11.9824 19.1406 9.73635 19.1406 9.58986C19.1406 9.39455 18.9648 9.17971 18.8086 9.17971C18.75 9.17971 18.1738 9.60939 17.5293 10.1172Z" fill="#1AD079"/>
<path d="M18.8574 11.0742C18.7695 11.1719 18.7402 12.6562 18.75 16.7383V22.2656H18.0664H17.3828V18.623C17.3828 15.918 17.3535 14.9512 17.2656 14.8633C17.0996 14.6973 13.4668 14.6973 13.3008 14.8633C13.2129 14.9512 13.1836 15.918 13.1836 18.623V22.2656H12.5H11.8066L11.8164 18.3789C11.8262 16.25 11.7969 14.4238 11.7676 14.3262C11.6992 14.1797 11.5137 14.1602 9.76562 14.1602C8.0957 14.1602 7.82227 14.1797 7.77344 14.3164C7.74414 14.4043 7.71484 16.2207 7.71484 18.3691V22.2656H7.03125H6.34766V19.4922C6.34766 17.9688 6.31836 16.6504 6.28906 16.5625C6.24023 16.4258 5.9668 16.4062 4.30664 16.4062C2.93945 16.4062 2.35352 16.4355 2.26562 16.5234C2.17773 16.6113 2.14844 17.3926 2.14844 19.4531V22.2656H1.23047C0.722656 22.2656 0.244141 22.2949 0.15625 22.3242C-0.0488281 22.4023 -0.0488281 22.8125 0.15625 22.8906C0.351562 22.9688 24.6484 22.9688 24.8438 22.8906C25.0488 22.8125 25.0488 22.4023 24.8438 22.3242C24.7559 22.2949 24.2773 22.2656 23.7695 22.2656H22.8516V16.7188C22.8516 12.5391 22.8223 11.1426 22.7344 11.0547C22.5488 10.8691 19.0039 10.8887 18.8574 11.0742ZM22.168 16.9922V22.2656H20.8008H19.4336V16.9922V11.7188H20.8008H22.168V16.9922ZM11.1328 18.5547V22.2656H9.76562H8.39844V18.5547V14.8438H9.76562H11.1328V18.5547ZM16.6504 18.8477V22.2168L15.2637 22.2461L13.8672 22.2754V18.8477V15.4199L15.2637 15.4492L16.6504 15.4785V18.8477ZM5.66406 19.6777V22.2754L4.27734 22.2461L2.88086 22.2168L2.85156 19.6484L2.83203 17.0898H4.24805H5.66406V19.6777Z" fill="black"/>
</svg>
