<svg width="168" height="30" viewBox="0 0 168 30" fill="none" xmlns="http://www.w3.org/2000/svg">
<path d="M11.177 0.562498C9.07587 1.3125 6.2107 3.1875 4.87363 4.59375C2.43823 7.26562 1.24441 10.3125 1.00565 14.3906C0.910143 16.5469 0.910143 18.2812 1.0534 18.2812C1.19666 18.2812 2.19947 17.8125 3.25003 17.25C5.06464 16.3125 5.2079 16.0781 5.2079 14.2031C5.2079 8.67187 10.2697 4.17187 16.4776 4.17187C21.5394 4.17187 25.1686 6.84375 26.8877 11.8594C27.8427 14.625 27.8427 15.1875 26.9354 18.1406C26.2669 20.3906 22.5899 24.8437 21.4439 24.8437C21.1573 24.8437 20.9663 25.9219 20.9663 27.2344V29.5781L23.8315 28.0781C28.7023 25.5469 31.5674 20.7187 31.5674 15C31.6152 9.14062 28.4635 4.07812 23.0197 1.40625C21.2051 0.468748 19.868 0.234373 16.6686 0.140623C14.4242 0.0937481 11.9888 0.281248 11.177 0.562498Z" fill="white"/>
<path d="M14.7584 6.375C11.4635 7.59375 9.83989 8.71875 8.78933 10.5C7.64326 12.375 7.16573 14.8125 7.97753 14.4375C8.16854 14.3438 9.98315 13.4062 12.0365 12.2812C15.4747 10.3594 15.809 10.2656 17.3848 10.7812C19.9635 11.625 20.6798 13.125 20.9663 18L21.2051 22.2656L22.6854 20.7656C26.5056 16.9219 25.264 9.60938 20.3933 7.35938C18.5309 6.51562 15.7612 6.04688 14.7584 6.375Z" fill="white"/>
<path d="M151.475 8.29688C151.331 8.76562 150.042 12.0469 148.61 15.6094C147.225 19.1719 146.079 22.1719 146.079 22.3125C146.079 22.4062 146.843 22.5 147.75 22.5C149.183 22.5 149.517 22.3125 150.09 20.8594C150.806 19.2656 150.854 19.2188 153.671 19.2188C156.489 19.2188 156.537 19.2188 157.062 20.8594C157.587 22.3594 157.778 22.5 159.497 22.5C160.5 22.5 161.36 22.4531 161.36 22.3594C161.36 22.3125 160.5 20.0625 159.402 17.3438C158.351 14.625 157.062 11.2969 156.537 9.9375C155.581 7.54688 155.534 7.5 153.671 7.5C152.287 7.5 151.714 7.73438 151.475 8.29688ZM154.674 14.2031C155.343 16.3125 155.247 16.5 153.337 16.3125L151.905 16.1719L152.669 13.9219C153.48 11.4844 153.767 11.5312 154.674 14.2031Z" fill="white"/>
<path d="M163.747 15V22.5H165.419H167.09V15V7.5H165.419H163.747V15Z" fill="white"/>
<path d="M14.6629 13.5469C11.177 15.3281 1.86517 20.7187 1.86517 20.9531C1.86517 21.0937 2.29495 21.9375 2.86798 22.7812L3.82304 24.375L6.54495 22.9219C8.02529 22.0781 9.60113 21.1875 9.98315 20.9062C10.6039 20.4375 9.45787 22.5469 7.73877 25.0781C7.4045 25.5937 7.11798 26.2969 7.11798 26.7187C7.11798 27.5156 9.83989 29.2031 10.5084 28.7812C10.7472 28.6406 11.559 27.4219 12.2753 26.1094L13.5646 23.6719L13.8034 26.7187L14.0421 29.7656L16.3343 29.9062L18.5787 30.0469V22.7812C18.5787 13.1719 18.0056 11.8125 14.6629 13.5469Z" fill="white"/>
</svg>
