<svg width="69" height="74" viewBox="0 0 69 74" fill="none" xmlns="http://www.w3.org/2000/svg">
<g clip-path="url(#clip0_270_201)">
<rect x="6.96899" y="0.403961" width="62" height="68" rx="3.34843" transform="rotate(5.43363 6.96899 0.403961)" fill="white"/>
<path d="M15.2748 21.9365L14.8689 21.8979L15.0913 19.5598C15.1089 19.3751 15.1418 19.1502 15.1899 18.885L15.1801 18.8841C15.1263 19.0375 15.0808 19.1468 15.0435 19.2119L13.5978 21.777L13.3985 21.758L12.463 18.9861C12.4363 18.9051 12.4128 18.7827 12.3924 18.6189L12.3827 18.618C12.3824 18.7585 12.3673 18.9868 12.3372 19.3028L12.1153 21.636L11.7215 21.5985L12.053 18.1133L12.5926 18.1646L13.4308 20.6968C13.4957 20.891 13.5359 21.0354 13.5515 21.1301L13.566 21.1314C13.6539 20.9469 13.7234 20.8096 13.7744 20.7196L15.096 18.4027L15.6063 18.4513L15.2748 21.9365ZM16.6411 18.9176C16.5698 18.9108 16.5113 18.8807 16.4657 18.8273C16.4201 18.7739 16.4008 18.71 16.4079 18.6354C16.415 18.5609 16.446 18.5017 16.5009 18.4579C16.5559 18.4124 16.619 18.3931 16.6903 18.3999C16.7632 18.4068 16.8224 18.4378 16.8678 18.4928C16.9151 18.5463 16.9351 18.6104 16.9281 18.6849C16.9213 18.7562 16.8896 18.8145 16.8329 18.8598C16.7779 18.9052 16.714 18.9245 16.6411 18.9176ZM16.5387 22.0567L16.1401 22.0188L16.3768 19.5301L16.7754 19.568L16.5387 22.0567ZM19.4114 22.33L18.8524 22.2768L17.8676 20.9766L17.8579 20.9756L17.7441 22.1714L17.3456 22.1335L17.696 18.4489L18.0946 18.4869L17.8725 20.8225L17.8822 20.8234L19.0357 19.783L19.5582 19.8327L18.2896 20.9235L19.4114 22.33ZM21.9289 21.4144L20.1717 21.2472C20.1518 21.5249 20.206 21.7459 20.3342 21.9101C20.4625 22.0744 20.6514 22.1684 20.9009 22.1921C21.1812 22.2188 21.4476 22.1509 21.7001 21.9885L21.6645 22.3628C21.4307 22.5008 21.1339 22.5527 20.7742 22.5185C20.4226 22.485 20.1571 22.3461 19.9776 22.1018C19.7982 21.8559 19.7281 21.5279 19.7671 21.118C19.8039 20.7307 19.9432 20.426 20.1851 20.2038C20.4287 19.9801 20.7134 19.8837 21.0391 19.9147C21.3647 19.9457 21.6067 20.0749 21.7649 20.3025C21.9231 20.5301 21.9844 20.8311 21.9488 21.2053L21.9289 21.4144ZM21.5527 21.0377C21.573 20.8075 21.5341 20.6231 21.4361 20.4846C21.3397 20.3463 21.1943 20.2679 20.9999 20.2494C20.8119 20.2315 20.6459 20.2836 20.5019 20.4056C20.3578 20.5276 20.2601 20.6957 20.2087 20.9098L21.5527 21.0377ZM26.343 22.9893L25.8569 22.9431L25.3666 21.9106C25.3217 21.8148 25.2772 21.7329 25.233 21.6649C25.1889 21.5953 25.1421 21.5377 25.0925 21.4921C25.0445 21.4467 24.9905 21.4121 24.9307 21.3884C24.8726 21.3633 24.8054 21.3471 24.7293 21.3398L24.3939 21.3079L24.2529 22.7905L23.8445 22.7517L24.1761 19.2664L25.2163 19.3654C25.3686 19.3799 25.5069 19.4126 25.6312 19.4637C25.7573 19.5133 25.8636 19.5815 25.9502 19.6682C26.0384 19.755 26.1037 19.8593 26.146 19.9811C26.1886 20.1012 26.2024 20.239 26.1876 20.3946C26.1761 20.5161 26.1468 20.6261 26.0998 20.7247C26.0546 20.8217 25.9942 20.9067 25.9186 20.9797C25.8446 21.0527 25.7572 21.1131 25.6562 21.1607C25.557 21.2069 25.4467 21.2397 25.3255 21.2592L25.3246 21.269C25.3805 21.3004 25.4278 21.3352 25.4667 21.3732C25.5074 21.4098 25.545 21.4526 25.5796 21.5017C25.6142 21.5507 25.6473 21.6062 25.679 21.6681C25.7125 21.7285 25.7491 21.799 25.7889 21.8796L26.343 22.9893ZM24.5492 19.6747L24.429 20.9385L24.9832 20.9912C25.0852 21.0009 25.1807 20.9945 25.2695 20.9719C25.3599 20.9494 25.4394 20.9128 25.508 20.8621C25.5767 20.8098 25.6329 20.744 25.6764 20.6648C25.72 20.5839 25.7468 20.4916 25.7567 20.3879C25.7744 20.2016 25.7274 20.0508 25.6158 19.9355C25.5059 19.8188 25.3367 19.7496 25.1082 19.7279L24.5492 19.6747ZM27.6596 23.1734C27.2918 23.1384 27.0088 22.9946 26.8105 22.742C26.6139 22.4878 26.5339 22.1688 26.5704 21.7847C26.6102 21.3667 26.7555 21.0511 27.0063 20.8379C27.2571 20.6247 27.5769 20.5366 27.9658 20.5735C28.3368 20.6088 28.6152 20.7506 28.8009 20.9988C28.9882 21.2471 29.0625 21.5738 29.024 21.9789C28.9862 22.3759 28.8433 22.6835 28.5953 22.9019C28.3491 23.1188 28.0372 23.2093 27.6596 23.1734ZM27.9047 20.9062C27.6487 20.8818 27.4379 20.9501 27.2722 21.1109C27.1066 21.2701 27.0093 21.5028 26.9801 21.809C26.9521 22.1039 27.0053 22.3436 27.1398 22.528C27.2743 22.7125 27.4679 22.8168 27.7207 22.8408C27.9783 22.8653 28.1839 22.8007 28.3375 22.6469C28.4928 22.4932 28.585 22.2625 28.6143 21.9546C28.6439 21.6435 28.597 21.3971 28.4737 21.2153C28.352 21.0337 28.1624 20.9307 27.9047 20.9062ZM31.2488 23.3407C31.0467 23.4376 30.8143 23.4735 30.5519 23.4485C30.197 23.4148 29.9212 23.2725 29.7243 23.0216C29.5292 22.7692 29.4492 22.4591 29.4842 22.0913C29.5232 21.6814 29.6719 21.3637 29.9304 21.1381C30.1891 20.9109 30.5145 20.816 30.9066 20.8533C31.1254 20.8741 31.3143 20.9329 31.4735 21.0298L31.4347 21.4381C31.2623 21.2909 31.0708 21.2073 30.8601 21.1873C30.6058 21.1631 30.388 21.2348 30.207 21.4023C30.0277 21.5683 29.9239 21.7996 29.8957 22.0961C29.868 22.3878 29.9222 22.6251 30.0585 22.8081C30.1964 22.9913 30.3942 23.0951 30.6518 23.1196C30.8689 23.1403 31.0799 23.0876 31.2849 22.9616L31.2488 23.3407ZM33.9065 23.7088L33.3475 23.6556L32.3627 22.3553L32.353 22.3544L32.2393 23.5502L31.8407 23.5123L32.1912 19.8277L32.5897 19.8656L32.3676 22.2013L32.3773 22.2022L33.5308 21.1617L34.0534 21.2115L32.7847 22.3023L33.9065 23.7088ZM37.6869 21.5571L36.704 23.9749L36.2908 23.9356L35.9474 22.1053C35.9345 22.0354 35.9288 21.9572 35.9305 21.8707L35.9208 21.8698C35.9104 21.9276 35.8862 22.0014 35.8483 22.0909L35.1218 23.8244L34.7232 23.7864L34.2065 21.226L34.6245 21.2658L34.9617 23.1862C34.9726 23.2445 34.9768 23.3201 34.9745 23.4131L34.9939 23.4149C35.0056 23.3441 35.0274 23.2693 35.0594 23.1906L35.8106 21.3786L36.1751 21.4133L36.5119 23.3386C36.5224 23.4001 36.5275 23.4758 36.5271 23.5656L36.5465 23.5675C36.5558 23.5046 36.5766 23.4314 36.6091 23.3478L37.2931 21.5196L37.6869 21.5571ZM38.9466 24.247C38.5788 24.2121 38.2957 24.0682 38.0974 23.8156C37.9008 23.5614 37.8208 23.2424 37.8574 22.8584C37.8971 22.4403 38.0424 22.1247 38.2932 21.9115C38.544 21.6983 38.8639 21.6102 39.2527 21.6472C39.6238 21.6825 39.9021 21.8242 40.0878 22.0724C40.2751 22.3207 40.3495 22.6474 40.3109 23.0525C40.2732 23.4495 40.1303 23.7572 39.8823 23.9755C39.636 24.1924 39.3241 24.2829 38.9466 24.247ZM39.1917 21.9798C38.9357 21.9554 38.7248 22.0237 38.5591 22.1845C38.3935 22.3437 38.2962 22.5764 38.2671 22.8826C38.239 23.1775 38.2922 23.4172 38.4267 23.6017C38.5613 23.7861 38.7549 23.8904 39.0077 23.9144C39.2653 23.9389 39.4709 23.8743 39.6245 23.7205C39.7797 23.5669 39.872 23.3361 39.9012 23.0282C39.9308 22.7172 39.884 22.4707 39.7607 22.289C39.639 22.1073 39.4493 22.0043 39.1917 21.9798ZM41.8631 24.5245C41.4953 24.4895 41.2122 24.3456 41.0139 24.093C40.8174 23.8389 40.7374 23.5198 40.7739 23.1358C40.8137 22.7177 40.9589 22.4021 41.2097 22.1889C41.4606 21.9757 41.7804 21.8876 42.1693 21.9246C42.5403 21.9599 42.8187 22.1016 43.0043 22.3498C43.1916 22.5981 43.266 22.9249 43.2275 23.3299C43.1897 23.7269 43.0468 24.0346 42.7988 24.253C42.5525 24.4699 42.2406 24.5604 41.8631 24.5245ZM42.1082 22.2572C41.8522 22.2329 41.6413 22.3011 41.4756 22.4619C41.3101 22.6211 41.2127 22.8538 41.1836 23.16C41.1555 23.4549 41.2088 23.6946 41.3433 23.8791C41.4778 24.0635 41.6714 24.1678 41.9242 24.1918C42.1818 24.2163 42.3874 24.1517 42.541 23.9979C42.6962 23.8443 42.7885 23.6135 42.8178 23.3057C42.8474 22.9946 42.8005 22.7481 42.6772 22.5664C42.5555 22.3848 42.3658 22.2817 42.1082 22.2572ZM45.8692 24.8467L45.4706 24.8087L45.5108 24.3858L45.5011 24.3849C45.2858 24.6882 44.9854 24.8215 44.5998 24.7848C44.2871 24.755 44.0473 24.6202 43.8804 24.3804C43.7154 24.139 43.6511 23.8264 43.6876 23.4424C43.7268 23.0308 43.8618 22.7109 44.0928 22.4828C44.3238 22.2546 44.6119 22.1569 44.957 22.1897C45.2989 22.2223 45.5348 22.3804 45.6647 22.6642L45.6745 22.6651L45.821 21.1242L46.2196 21.1621L45.8692 24.8467ZM45.5776 23.6834L45.6125 23.3165C45.6316 23.1155 45.5814 22.9391 45.4618 22.7871C45.3422 22.6351 45.1803 22.5494 44.9761 22.53C44.7331 22.5069 44.5334 22.5778 44.3771 22.7428C44.2208 22.9078 44.1277 23.1474 44.0978 23.4618C44.0705 23.7486 44.1154 23.9817 44.2324 24.1612C44.3511 24.3393 44.5231 24.439 44.7483 24.4605C44.9703 24.4816 45.1578 24.4185 45.3108 24.2712C45.4654 24.124 45.5543 23.9281 45.5776 23.6834Z" fill="black"/>
<path d="M10.9635 37.2678L10.9133 37.7952L10.6144 37.7667L10.6627 37.2588C10.303 37.2245 10.0172 37.1271 9.80522 36.9663L9.85677 36.4243C9.94744 36.5196 10.0743 36.6044 10.2372 36.6788C10.4018 36.7533 10.5578 36.7975 10.7053 36.8116L10.8081 35.73C10.4425 35.517 10.2101 35.3306 10.1109 35.1708C10.0133 35.0111 9.97417 34.8291 9.99359 34.625C10.0166 34.3836 10.1222 34.1835 10.3106 34.0249C10.4992 33.8646 10.7272 33.7792 10.9947 33.7687L11.0363 33.3312L11.3353 33.3596L11.2946 33.7874C11.6339 33.8295 11.8645 33.8972 11.9865 33.9905L11.937 34.5106C11.7727 34.3642 11.5444 34.2722 11.252 34.2346L11.1455 35.355C11.4862 35.5542 11.7148 35.7378 11.8312 35.9058C11.9477 36.0738 11.9966 36.2559 11.9779 36.4519C11.9553 36.6901 11.8545 36.8816 11.6756 37.0265C11.4967 37.1713 11.2593 37.2517 10.9635 37.2678ZM10.8597 35.188L10.9519 34.2183C10.8281 34.231 10.7268 34.2737 10.6479 34.3463C10.5691 34.4189 10.5243 34.512 10.5135 34.6254C10.5021 34.7453 10.5219 34.8461 10.573 34.9278C10.6241 35.0095 10.7196 35.0962 10.8597 35.188ZM11.0946 35.8897L11.0056 36.8254C11.2866 36.7933 11.438 36.663 11.4597 36.4345C11.4779 36.2433 11.3562 36.0617 11.0946 35.8897ZM14.0008 33.981L13.6619 37.544L13.098 37.4904L13.3713 34.6176C13.2623 34.6808 13.1462 34.7327 13.0229 34.7733C12.9015 34.8125 12.7636 34.8443 12.6092 34.8689L12.655 34.3876C12.7519 34.3658 12.8457 34.342 12.9364 34.3163C13.0272 34.2906 13.1167 34.2607 13.2049 34.2266C13.2948 34.1926 13.3852 34.1538 13.476 34.1101C13.5684 34.0666 13.6639 34.016 13.7626 33.9584L14.0008 33.981ZM15.1195 37.0966L14.6274 38.2735L14.2045 38.2333L14.5872 37.0459L15.1195 37.0966ZM17.7961 37.9373L15.6087 37.7292L15.6343 37.4594C15.6448 37.3493 15.67 37.2478 15.7099 37.1552C15.7499 37.0609 15.7998 36.9741 15.8597 36.8948C15.9197 36.8138 15.9881 36.7394 16.0649 36.6715C16.1418 36.602 16.2233 36.5361 16.3093 36.474C16.3955 36.4103 16.4829 36.3499 16.5717 36.293C16.6607 36.2344 16.748 36.1757 16.8337 36.1168C16.9143 36.0607 16.9882 36.0056 17.0555 35.9515C17.1229 35.8958 17.1816 35.8376 17.2315 35.777C17.2814 35.7163 17.3219 35.6515 17.353 35.5825C17.3842 35.5119 17.4038 35.4345 17.4119 35.3502C17.4206 35.2579 17.4137 35.1763 17.391 35.1054C17.3701 35.0332 17.3359 34.9719 17.2883 34.9216C17.2426 34.8698 17.1859 34.8293 17.1184 34.7999C17.0511 34.769 16.9761 34.7496 16.8934 34.7418C16.7508 34.7282 16.6027 34.7476 16.4489 34.8C16.2951 34.8524 16.1439 34.9386 15.9951 35.0585L16.0467 34.5165C16.1231 34.4698 16.1996 34.4305 16.2762 34.3986C16.3529 34.365 16.4314 34.3389 16.5117 34.3204C16.5921 34.3003 16.6758 34.2878 16.7629 34.283C16.85 34.2782 16.9422 34.2804 17.0394 34.2897C17.1966 34.3046 17.3372 34.3393 17.4612 34.3936C17.5853 34.4462 17.6889 34.5174 17.7719 34.6071C17.8551 34.6951 17.9153 34.8014 17.9525 34.9259C17.9913 35.0506 18.0034 35.1907 17.9886 35.3462C17.9752 35.4872 17.9452 35.6127 17.8988 35.7227C17.8541 35.8313 17.7948 35.9311 17.7207 36.0221C17.6483 36.1133 17.5625 36.1984 17.4635 36.2772C17.3644 36.3561 17.2546 36.4364 17.134 36.5181C17.0328 36.5853 16.9317 36.6509 16.8308 36.7149C16.7317 36.7774 16.6415 36.84 16.5604 36.9025C16.4794 36.9635 16.412 37.0266 16.3584 37.0918C16.3066 37.1555 16.2773 37.2222 16.2707 37.2919L16.2696 37.3041L17.8421 37.4536L17.7961 37.9373ZM20.8648 36.2795C20.8316 36.6279 20.765 36.924 20.665 37.1679C20.5666 37.412 20.4432 37.6087 20.295 37.7581C20.1483 37.9076 19.9822 38.0128 19.7965 38.0736C19.6127 38.133 19.4187 38.1529 19.2145 38.1335C19.1481 38.1272 19.0812 38.1168 19.0139 38.1022C18.9483 38.0878 18.8853 38.0711 18.8249 38.0523C18.7662 38.0337 18.7124 38.0146 18.6636 37.9953C18.6165 37.9745 18.5775 37.9552 18.5465 37.9375L18.5948 37.4296C18.6268 37.4539 18.6669 37.4798 18.7149 37.5072C18.7632 37.5331 18.8156 37.5577 18.8722 37.581C18.9306 37.603 18.9909 37.6226 19.053 37.6399C19.1169 37.6558 19.1788 37.6666 19.2388 37.6723C19.3765 37.6854 19.5038 37.6706 19.6207 37.6277C19.7392 37.585 19.8431 37.5148 19.9326 37.417C20.022 37.3193 20.0951 37.1946 20.1521 37.0431C20.2108 36.8901 20.2499 36.7107 20.2695 36.5049L20.2597 36.504C20.2256 36.5531 20.1821 36.5988 20.129 36.6411C20.0777 36.682 20.0195 36.7174 19.9546 36.7472C19.8898 36.7753 19.8183 36.7963 19.7401 36.8102C19.6636 36.8241 19.5824 36.827 19.4965 36.8189C19.3507 36.805 19.217 36.7669 19.0954 36.7047C18.9755 36.641 18.8739 36.5577 18.7905 36.455C18.7071 36.3522 18.645 36.231 18.6044 36.0915C18.5653 35.9521 18.5536 35.7997 18.5693 35.6344C18.5866 35.453 18.6322 35.2922 18.706 35.152C18.7799 35.0103 18.8744 34.8934 18.9895 34.8013C19.1047 34.7077 19.2362 34.6401 19.384 34.5985C19.532 34.5554 19.6894 34.5417 19.8563 34.5576C20.0135 34.5726 20.1589 34.6166 20.2925 34.6899C20.4279 34.7616 20.5421 34.8673 20.6351 35.0069C20.7299 35.1451 20.7983 35.3192 20.8405 35.5292C20.8843 35.7394 20.8924 35.9895 20.8648 36.2795ZM20.312 35.8517C20.3231 35.735 20.3178 35.6274 20.2961 35.5289C20.276 35.4306 20.2425 35.3448 20.1955 35.2717C20.1485 35.1985 20.0895 35.1398 20.0185 35.0954C19.9491 35.0512 19.8707 35.025 19.7832 35.0166C19.7054 35.0092 19.6294 35.0183 19.555 35.044C19.4824 35.0681 19.4166 35.1068 19.3576 35.1601C19.3002 35.2135 19.2521 35.28 19.2135 35.3597C19.1748 35.4394 19.1507 35.5295 19.1412 35.63C19.1307 35.7402 19.136 35.8388 19.1572 35.9258C19.18 36.013 19.2153 36.0883 19.2632 36.1517C19.3113 36.2135 19.3711 36.2633 19.4428 36.3012C19.5161 36.3376 19.5982 36.3601 19.6889 36.3688C19.7699 36.3765 19.8459 36.369 19.9167 36.3463C19.9893 36.3221 20.0531 36.2873 20.1081 36.2419C20.1649 36.1949 20.2112 36.138 20.247 36.0711C20.2828 36.0042 20.3044 35.9311 20.312 35.8517ZM21.2279 38.1337L21.2783 37.6039C21.4881 37.8053 21.7355 37.9196 22.0207 37.9467C22.2524 37.9688 22.4421 37.9337 22.5898 37.8415C22.7392 37.7494 22.8224 37.6135 22.8396 37.4336C22.8772 37.0383 22.5938 36.8118 21.9894 36.7543L21.7196 36.7287L21.7626 36.2766L22.0203 36.3011C22.5566 36.3521 22.8425 36.1913 22.8779 35.8186C22.9106 35.4751 22.7179 35.2835 22.2999 35.2438C22.0665 35.2216 21.8391 35.2841 21.6174 35.4314L21.665 34.9308C21.9142 34.8204 22.2 34.7806 22.5225 34.8112C22.832 34.8407 23.0725 34.942 23.244 35.1153C23.4155 35.2886 23.4898 35.4967 23.4666 35.7398C23.423 36.1983 23.1616 36.471 22.6825 36.5579L22.6816 36.5676C22.9304 36.6158 23.1205 36.723 23.2518 36.8891C23.3833 37.0537 23.4383 37.2494 23.4167 37.4762C23.387 37.789 23.2455 38.0305 22.9922 38.201C22.7391 38.3699 22.4205 38.436 22.0365 38.3995C21.6914 38.3667 21.4218 38.2781 21.2279 38.1337ZM24.6322 38.0014L24.1401 39.1784L23.7172 39.1381L24.1 37.9508L24.6322 38.0014ZM27.3088 38.8421L25.1214 38.6341L25.147 38.3643C25.1575 38.2541 25.1827 38.1527 25.2226 38.06C25.2626 37.9657 25.3126 37.8789 25.3724 37.7996C25.4324 37.7187 25.5008 37.6442 25.5776 37.5763C25.6545 37.5068 25.736 37.441 25.822 37.3789C25.9082 37.3151 25.9957 37.2548 26.0845 37.1978C26.1734 37.1392 26.2608 37.0805 26.3465 37.0216C26.427 36.9655 26.5009 36.9104 26.5682 36.8563C26.6356 36.8006 26.6943 36.7425 26.7442 36.6818C26.7941 36.6212 26.8346 36.5563 26.8657 36.4874C26.8969 36.4168 26.9166 36.3393 26.9246 36.2551C26.9334 36.1627 26.9264 36.0811 26.9037 36.0103C26.8828 35.938 26.8486 35.8767 26.801 35.8264C26.7553 35.7746 26.6987 35.7341 26.6311 35.7048C26.5638 35.6739 26.4888 35.6545 26.4061 35.6466C26.2636 35.633 26.1154 35.6525 25.9616 35.7049C25.8079 35.7573 25.6566 35.8434 25.5079 35.9634L25.5594 35.4214C25.6358 35.3747 25.7123 35.3354 25.7889 35.3034C25.8657 35.2698 25.9442 35.2438 26.0244 35.2253C26.1048 35.2051 26.1885 35.1926 26.2757 35.1878C26.3628 35.1831 26.4549 35.1853 26.5521 35.1945C26.7093 35.2095 26.8499 35.2441 26.9739 35.2984C27.098 35.3511 27.2016 35.4223 27.2847 35.5119C27.3678 35.5999 27.428 35.7062 27.4652 35.8307C27.5041 35.9554 27.5161 36.0955 27.5013 36.2511C27.4879 36.392 27.458 36.5175 27.4115 36.6276C27.3669 36.7361 27.3075 36.8359 27.2334 36.927C27.161 37.0182 27.0753 37.1032 26.9762 37.1821C26.8771 37.261 26.7673 37.3412 26.6467 37.423C26.5455 37.4902 26.4444 37.5558 26.3435 37.6198C26.2444 37.6823 26.1542 37.7448 26.0731 37.8074C25.9921 37.8684 25.9248 37.9314 25.8711 37.9966C25.8193 38.0604 25.7901 38.1271 25.7834 38.1968L25.7823 38.2089L27.3548 38.3585L27.3088 38.8421ZM28.9875 39.0607C28.6246 39.0262 28.3551 38.8509 28.1792 38.535C28.0048 38.2192 27.9443 37.781 27.9977 37.2204C28.0562 36.6047 28.2067 36.1489 28.449 35.8532C28.6913 35.5574 29.0126 35.4286 29.4128 35.4666C30.1792 35.5395 30.5057 36.1714 30.3924 37.3624C30.3363 37.9521 30.1849 38.3923 29.9382 38.6827C29.6933 38.9717 29.3764 39.0977 28.9875 39.0607ZM29.3433 35.9137C28.9204 35.8735 28.6646 36.3192 28.576 37.2509C28.4931 38.1226 28.659 38.5782 29.0738 38.6176C29.4821 38.6565 29.7284 38.2327 29.8127 37.3464C29.9 36.4294 29.7435 35.9518 29.3433 35.9137ZM31.7534 39.3238C31.3904 39.2892 31.121 39.114 30.945 38.7981C30.7707 38.4823 30.7102 38.0441 30.7635 37.4835C30.8221 36.8678 30.9725 36.412 31.2148 36.1163C31.4571 35.8205 31.7784 35.6916 32.1786 35.7297C32.945 35.8026 33.2716 36.4345 33.1583 37.6254C33.1022 38.2152 32.9508 38.6553 32.7041 38.9458C32.4591 39.2348 32.1422 39.3608 31.7534 39.3238ZM32.1091 36.1768C31.6862 36.1366 31.4304 36.5823 31.3418 37.514C31.2589 38.3857 31.4248 38.8413 31.8396 38.8807C32.248 38.9196 32.4943 38.4958 32.5786 37.6095C32.6658 36.6924 32.5093 36.2149 32.1091 36.1768Z" fill="#1AD079"/>
<rect x="51.9906" y="8.89087" width="13" height="7" rx="0.837109" transform="rotate(5.43363 51.9906 8.89087)" fill="#D4EAF2"/>
<path opacity="0.7" d="M56.2167 14.3154L55.7111 14.2673L54.5742 12.0913C54.5454 12.0363 54.5227 11.9798 54.5059 11.922L54.4943 11.9209C54.499 11.9815 54.492 12.1097 54.4734 12.3054L54.2995 14.1331L53.8523 14.0905L54.1176 11.3023L54.6561 11.3536L55.753 13.4767C55.7995 13.5649 55.8291 13.6252 55.8417 13.6578L55.8495 13.6586C55.8436 13.5835 55.849 13.4577 55.8657 13.2815L56.0366 11.4849L56.4819 11.5272L56.2167 14.3154ZM58.6271 13.6638L57.2699 13.5347C57.2576 13.7193 57.3005 13.8666 57.3986 13.9766C57.498 14.0868 57.6423 14.1509 57.8316 14.1689C58.0441 14.1891 58.2453 14.1441 58.4349 14.034L58.4003 14.3976C58.208 14.4944 57.9628 14.5286 57.6647 14.5003C57.3717 14.4724 57.1502 14.3604 57.0001 14.1643C56.8515 13.9671 56.7927 13.7045 56.8239 13.3765C56.8534 13.0667 56.9688 12.8233 57.17 12.6463C57.3727 12.468 57.6102 12.3919 57.8824 12.4178C58.1546 12.4437 58.3569 12.5512 58.4893 12.7404C58.6217 12.9295 58.6731 13.1797 58.6436 13.4908L58.6271 13.6638ZM58.2219 13.3035C58.236 13.1413 58.2097 13.012 58.1431 12.9154C58.0765 12.8175 57.9771 12.7623 57.8449 12.7497C57.7153 12.7374 57.6006 12.7742 57.5009 12.8602C57.4024 12.9463 57.3356 13.0649 57.3003 13.2158L58.2219 13.3035ZM61.8405 12.8413L61.0639 14.7765L60.5915 14.7316L60.3582 13.3478C60.3488 13.2946 60.3453 13.2354 60.3476 13.1702L60.3398 13.1695C60.333 13.2133 60.3159 13.2692 60.2885 13.3372L59.7671 14.6531L59.3043 14.6091L58.9084 12.5624L59.3751 12.6068L59.6002 14.0762C59.6078 14.12 59.6102 14.1778 59.6073 14.2495L59.6209 14.2508C59.63 14.1967 59.6459 14.1394 59.6687 14.0787L60.2073 12.686L60.6311 12.7263L60.8518 14.2011C60.8592 14.2476 60.8622 14.3054 60.8608 14.3746L60.8745 14.3759C60.8816 14.3282 60.8968 14.2721 60.9199 14.2076L61.4108 12.8005L61.8405 12.8413Z" fill="black"/>
<path opacity="0.7" d="M8.71214 48.2615L8.97736 45.4733L9.77065 45.5488C10.0117 45.5717 10.1973 45.6489 10.3274 45.7803C10.4575 45.9117 10.5135 46.072 10.4955 46.2613C10.4805 46.4194 10.4246 46.5527 10.328 46.6613C10.2313 46.7698 10.1055 46.8415 9.95042 46.8765L9.94968 46.8843C10.1355 46.9242 10.2791 47.0098 10.3804 47.141C10.4819 47.271 10.5234 47.4319 10.5052 47.6238C10.4825 47.8623 10.3786 48.0473 10.1934 48.1788C10.0083 48.3103 9.78542 48.3636 9.52488 48.3388L8.71214 48.2615ZM9.27589 45.8L9.19026 46.7002L9.52469 46.732C9.70357 46.749 9.84828 46.7196 9.95882 46.6438C10.0695 46.5667 10.1323 46.4497 10.1472 46.2929C10.173 46.022 10.0076 45.8696 9.65115 45.8357L9.27589 45.8ZM9.16234 46.9938L9.06691 47.9971L9.51022 48.0392C9.70206 48.0575 9.85479 48.0262 9.96842 47.9455C10.0833 47.8649 10.1483 47.7455 10.1634 47.5873C10.1947 47.2581 9.98609 47.0721 9.5376 47.0295L9.16234 46.9938ZM11.7798 48.6004C11.4855 48.5724 11.2591 48.4574 11.1004 48.2552C10.9432 48.0519 10.8792 47.7967 10.9084 47.4895C10.9402 47.155 11.0564 46.9026 11.2571 46.732C11.4577 46.5614 11.7136 46.4909 12.0247 46.5205C12.3215 46.5488 12.5442 46.6621 12.6928 46.8607C12.8426 47.0594 12.9021 47.3207 12.8713 47.6448C12.8411 47.9624 12.7267 48.2085 12.5283 48.3832C12.3313 48.5567 12.0818 48.6291 11.7798 48.6004ZM11.9758 46.7866C11.771 46.7671 11.6024 46.8217 11.4698 46.9504C11.3373 47.0777 11.2595 47.2639 11.2362 47.5089C11.2137 47.7448 11.2563 47.9365 11.3639 48.0841C11.4715 48.2317 11.6264 48.3151 11.8286 48.3343C12.0347 48.3539 12.1992 48.3022 12.3221 48.1792C12.4463 48.0563 12.5201 47.8717 12.5435 47.6254C12.5672 47.3765 12.5297 47.1794 12.431 47.034C12.3337 46.8887 12.1819 46.8062 11.9758 46.7866ZM13.1715 48.6131L13.2041 48.2709C13.3656 48.4158 13.5507 48.4981 13.7594 48.518C14.0394 48.5446 14.1882 48.4646 14.206 48.2779C14.211 48.2248 14.203 48.1789 14.1818 48.1403C14.162 48.1004 14.1328 48.0643 14.094 48.0318C14.0565 47.9995 14.011 47.9697 13.9573 47.9423C13.9051 47.9138 13.8484 47.8842 13.7873 47.8536C13.7024 47.8102 13.628 47.7678 13.5639 47.7264C13.5013 47.6838 13.4493 47.6383 13.4082 47.5899C13.3684 47.5404 13.3396 47.486 13.3217 47.4267C13.3051 47.3676 13.3004 47.2998 13.3077 47.2233C13.3165 47.13 13.3458 47.0497 13.3953 46.9825C13.445 46.9139 13.5078 46.8591 13.5836 46.8179C13.6596 46.7754 13.7441 46.7462 13.8372 46.7302C13.9316 46.7143 14.0274 46.711 14.1246 46.7203C14.297 46.7367 14.4484 46.7811 14.5788 46.8537L14.5481 47.1765C14.4108 47.0666 14.2468 47.0026 14.0563 46.9845C13.9967 46.9788 13.9422 46.9809 13.8929 46.9905C13.8437 46.9989 13.8004 47.0138 13.7631 47.0351C13.727 47.0565 13.6976 47.0838 13.6749 47.117C13.6535 47.1489 13.6409 47.1857 13.6369 47.2271C13.632 47.279 13.6369 47.3233 13.6517 47.36C13.6679 47.3968 13.6928 47.4306 13.7265 47.4613C13.7602 47.492 13.8019 47.5208 13.8517 47.5477C13.9014 47.5747 13.9581 47.6043 14.0217 47.6365C14.1067 47.6786 14.1824 47.7211 14.249 47.7641C14.3156 47.8057 14.3714 47.8516 14.4164 47.9016C14.4615 47.9504 14.4942 48.0052 14.5145 48.066C14.5362 48.1269 14.5432 48.1975 14.5356 48.2779C14.5262 48.3764 14.496 48.4599 14.4451 48.5283C14.3954 48.5968 14.332 48.6516 14.2548 48.6926C14.1777 48.7337 14.0907 48.7614 13.9938 48.7757C13.897 48.79 13.7967 48.7923 13.693 48.7824C13.4882 48.7629 13.3144 48.7065 13.1715 48.6131ZM15.9022 48.9258C15.8231 48.9602 15.722 48.9715 15.5988 48.9598C15.2502 48.9266 15.0943 48.7156 15.1313 48.3267L15.2434 47.1484L14.9012 47.1159L14.9271 46.8437L15.2693 46.8762L15.3155 46.3901L15.6442 46.3174L15.5881 46.9066L16.0898 46.9543L16.0639 47.2265L15.5623 47.1788L15.4555 48.3007C15.4428 48.4342 15.4565 48.5316 15.4964 48.5929C15.5363 48.6543 15.6088 48.69 15.7138 48.7C15.7942 48.7076 15.8656 48.6922 15.9281 48.6536L15.9022 48.9258ZM17.154 49.1116C16.8597 49.0836 16.6333 48.9686 16.4746 48.7664C16.3174 48.5631 16.2534 48.3079 16.2826 48.0007C16.3144 47.6662 16.4306 47.4137 16.6313 47.2432C16.8319 47.0726 17.0878 47.0021 17.3989 47.0317C17.6957 47.0599 17.9184 47.1733 18.0669 47.3719C18.2168 47.5706 18.2763 47.8319 18.2454 48.156C18.2152 48.4736 18.1009 48.7197 17.9025 48.8944C17.7055 49.0679 17.456 49.1403 17.154 49.1116ZM17.35 47.2978C17.1452 47.2783 16.9765 47.3329 16.844 47.4616C16.7115 47.5889 16.6336 47.7751 16.6103 48.0201C16.5879 48.256 16.6305 48.4477 16.7381 48.5953C16.8457 48.7429 17.0006 48.8263 17.2028 48.8455C17.4089 48.8651 17.5734 48.8134 17.6963 48.6904C17.8205 48.5675 17.8943 48.3829 17.9177 48.1366C17.9414 47.8877 17.9039 47.6906 17.8052 47.5451C17.7079 47.3999 17.5561 47.3174 17.35 47.2978ZM20.3121 49.3649L19.9933 49.3346L20.1013 48.1991C20.1415 47.7765 20.0073 47.5506 19.6988 47.5212C19.5394 47.5061 19.4014 47.5538 19.285 47.6643C19.1699 47.7737 19.1037 47.9198 19.0863 48.1026L18.9783 49.2381L18.6594 49.2077L18.8488 47.2167L19.1677 47.247L19.1362 47.5776L19.144 47.5783C19.3183 47.3412 19.548 47.2361 19.8332 47.2633C20.051 47.284 20.2108 47.3705 20.3127 47.5227C20.4148 47.6737 20.4532 47.882 20.4279 48.1478L20.3121 49.3649ZM21.2487 49.0067L20.8466 49.9337L20.6191 49.9121L20.9376 48.9771L21.2487 49.0067ZM25.7563 49.8828L25.4316 49.8519L25.6095 47.9814C25.6236 47.8337 25.6498 47.6537 25.6883 47.4415L25.6806 47.4408C25.6375 47.5636 25.6011 47.651 25.5712 47.7031L24.4147 49.7552L24.2553 49.74L23.5068 47.5224C23.4855 47.4576 23.4667 47.3597 23.4504 47.2287L23.4426 47.2279C23.4424 47.3404 23.4302 47.523 23.4062 47.7758L23.2286 49.6423L22.9137 49.6124L23.1789 46.8242L23.6105 46.8653L24.2811 48.891C24.333 49.0463 24.3652 49.1619 24.3776 49.2376L24.3893 49.2387C24.4596 49.0911 24.5151 48.9813 24.556 48.9093L25.6132 47.0557L26.0215 47.0946L25.7563 49.8828ZM28.6495 50.158L28.2878 50.1236L28.0667 49.3138L26.8845 49.2014L26.5321 49.9566L26.1685 49.922L27.5031 47.2355L27.8414 47.2677L28.6495 50.158ZM27.9876 49.0101L27.6632 47.7805C27.6526 47.7402 27.6443 47.6766 27.6381 47.5897L27.6304 47.589C27.6099 47.6668 27.5891 47.7276 27.5679 47.7714L27.0213 48.9182L27.9876 49.0101ZM8.47064 54.2656L8.14399 54.2346L8.4092 51.4464L8.73585 51.4775L8.47064 54.2656ZM10.8155 54.4887L10.4966 54.4584L10.6047 53.3229C10.6449 52.9003 10.5107 52.6743 10.2022 52.645C10.0428 52.6298 9.90481 52.6775 9.78835 52.7881C9.67331 52.8975 9.60709 53.0436 9.58971 53.2263L9.4817 54.3618L9.16283 54.3315L9.35221 52.3405L9.67108 52.3708L9.63964 52.7013L9.64742 52.7021C9.8217 52.4649 10.0514 52.3599 10.3366 52.387C10.5544 52.4077 10.7142 52.4942 10.8161 52.6465C10.9182 52.7975 10.9566 53.0058 10.9313 53.2715L10.8155 54.4887ZM13.071 54.7032L12.7521 54.6729L12.8612 53.5257C12.9007 53.1109 12.7661 52.8889 12.4576 52.8595C12.3021 52.8447 12.1654 52.8926 12.0477 53.003C11.93 53.1121 11.8623 53.2607 11.8444 53.4486L11.7371 54.5764L11.4183 54.546L11.6986 51.5984L12.0175 51.6287L11.8951 52.9159L11.9029 52.9166C12.0797 52.6797 12.3095 52.5747 12.592 52.6016C13.0405 52.6442 13.2391 52.9358 13.1877 53.4763L13.071 54.7032ZM15.361 53.997L13.9553 53.8633C13.9394 54.0854 13.9827 54.2622 14.0853 54.3936C14.1879 54.525 14.339 54.6002 14.5386 54.6192C14.7629 54.6405 14.976 54.5862 15.178 54.4563L15.1496 54.7558C14.9625 54.8661 14.7251 54.9077 14.4373 54.8803C14.156 54.8535 13.9436 54.7424 13.8 54.547C13.6565 54.3502 13.6004 54.0878 13.6316 53.7599C13.661 53.4501 13.7725 53.2063 13.966 53.0285C14.1609 52.8495 14.3886 52.7725 14.6492 52.7972C14.9097 52.822 15.1033 52.9254 15.2298 53.1075C15.3564 53.2896 15.4054 53.5303 15.3769 53.8298L15.361 53.997ZM15.0601 53.6957C15.0763 53.5115 15.0452 53.364 14.9668 53.2532C14.8897 53.1425 14.7734 53.0798 14.6178 53.065C14.4674 53.0507 14.3347 53.0923 14.2194 53.1899C14.1042 53.2875 14.026 53.422 13.9849 53.5934L15.0601 53.6957ZM16.955 53.3893C16.9034 53.3413 16.825 53.3122 16.72 53.3022C16.5839 53.2893 16.4638 53.3426 16.3595 53.4622C16.2566 53.5819 16.1946 53.7526 16.1735 53.9742L16.0769 54.9892L15.7581 54.9588L15.9474 52.9678L16.2663 52.9981L16.2273 53.4084L16.2351 53.4091C16.2938 53.2735 16.3735 53.1712 16.4742 53.1023C16.575 53.0321 16.6831 53.0025 16.7985 53.0135C16.8815 53.0213 16.9441 53.0365 16.9865 53.0588L16.955 53.3893ZM17.5432 52.6095C17.4862 52.6041 17.4394 52.58 17.403 52.5373C17.3665 52.4946 17.3511 52.4434 17.3567 52.3838C17.3624 52.3242 17.3872 52.2768 17.4311 52.2418C17.4751 52.2054 17.5256 52.1899 17.5826 52.1954C17.641 52.2009 17.6883 52.2257 17.7247 52.2697C17.7624 52.3125 17.7785 52.3637 17.7728 52.4234C17.7674 52.4804 17.742 52.527 17.6967 52.5633C17.6527 52.5996 17.6016 52.6151 17.5432 52.6095ZM17.4613 55.1208L17.1424 55.0905L17.3318 53.0995L17.6507 53.1298L17.4613 55.1208ZM19.0322 55.2506C18.9531 55.285 18.852 55.2963 18.7288 55.2846C18.3802 55.2514 18.2243 55.0404 18.2613 54.6515L18.3734 53.4732L18.0312 53.4407L18.0571 53.1685L18.3993 53.201L18.4455 52.7149L18.7742 52.6422L18.7181 53.2314L19.2198 53.2791L19.1939 53.5513L18.6922 53.5036L18.5855 54.6255C18.5728 54.759 18.5865 54.8564 18.6264 54.9178C18.6663 54.9791 18.7388 55.0148 18.8438 55.0248C18.9242 55.0324 18.9956 55.017 19.0581 54.9784L19.0322 55.2506ZM20.8814 55.4462L20.5625 55.4158L20.5921 55.1047L20.5844 55.104C20.423 55.3293 20.2075 55.4291 19.9379 55.4035C19.7395 55.3846 19.589 55.3173 19.4862 55.2016C19.3847 55.086 19.3422 54.9414 19.3587 54.7677C19.3941 54.3957 19.6338 54.2 20.0777 54.1808L20.6826 54.1539C20.7148 53.8156 20.5941 53.6335 20.3206 53.6075C20.0808 53.5846 19.8565 53.6457 19.6479 53.7907L19.6789 53.464C19.8865 53.3582 20.118 53.3174 20.3733 53.3417C20.8413 53.3862 21.0517 53.6561 21.0046 54.1512L20.8814 55.4462ZM20.6583 54.4087L20.1718 54.4291C20.0221 54.4358 19.9071 54.4621 19.8268 54.5081C19.7467 54.5528 19.7003 54.6419 19.6876 54.7754C19.6784 54.8726 19.7051 54.9556 19.7679 55.0244C19.8321 55.092 19.9219 55.1312 20.0373 55.1422C20.1954 55.1572 20.3309 55.1145 20.4438 55.0141C20.5581 54.9125 20.6233 54.7768 20.6395 54.607L20.6583 54.4087ZM23.1349 55.6605L22.816 55.6302L22.9241 54.4947C22.9642 54.0721 22.8301 53.8462 22.5216 53.8168C22.3622 53.8016 22.2242 53.8493 22.1077 53.9599C21.9927 54.0693 21.9265 54.2154 21.9091 54.3981L21.8011 55.5336L21.4822 55.5033L21.6716 53.5123L21.9905 53.5426L21.959 53.8732L21.9668 53.8739C22.1411 53.6367 22.3708 53.5317 22.656 53.5588C22.8738 53.5796 23.0336 53.666 23.1355 53.8183C23.2376 53.9693 23.276 54.1776 23.2507 54.4434L23.1349 55.6605ZM25.1035 55.7556C24.9418 55.833 24.756 55.8618 24.546 55.8418C24.2621 55.8148 24.0414 55.701 23.8839 55.5003C23.7279 55.2984 23.6638 55.0503 23.6918 54.7561C23.723 54.4281 23.842 54.1739 24.0488 53.9935C24.2558 53.8117 24.5161 53.7358 24.8298 53.7656C25.0048 53.7823 25.1559 53.8293 25.2833 53.9069L25.2522 54.2335C25.1143 54.1157 24.9611 54.0489 24.7926 54.0328C24.5891 54.0135 24.4149 54.0708 24.27 54.2048C24.1266 54.3377 24.0436 54.5227 24.0211 54.7599C23.9989 54.9932 24.0423 55.1831 24.1513 55.3295C24.2616 55.476 24.4198 55.5591 24.6259 55.5787C24.7996 55.5952 24.9684 55.5531 25.1324 55.4522L25.1035 55.7556ZM27.2643 55.1292L25.8586 54.9955C25.8427 55.2177 25.886 55.3944 25.9886 55.5258C26.0912 55.6572 26.2423 55.7324 26.4419 55.7514C26.6662 55.7727 26.8793 55.7185 27.0813 55.5886L27.0529 55.888C26.8658 55.9984 26.6284 56.0399 26.3406 56.0125C26.0593 55.9858 25.8469 55.8747 25.7033 55.6792C25.5598 55.4824 25.5037 55.2201 25.5349 54.8921C25.5643 54.5823 25.6758 54.3385 25.8693 54.1607C26.0642 53.9818 26.2919 53.9047 26.5525 53.9295C26.813 53.9543 27.0066 54.0577 27.1331 54.2398C27.2597 54.4218 27.3087 54.6626 27.2802 54.962L27.2643 55.1292ZM26.9634 54.8279C26.9796 54.6437 26.9485 54.4962 26.8701 54.3854C26.793 54.2748 26.6767 54.212 26.5211 54.1972C26.3708 54.1829 26.238 54.2246 26.1227 54.3222C26.0075 54.4198 25.9293 54.5543 25.8882 54.7256L26.9634 54.8279Z" fill="black"/>
<path d="M1.33887 56.2229L64.0112 62.6396L63.0904 71.6338C62.9239 73.2594 61.4712 74.4422 59.8457 74.2758L3.06 68.4619C1.43444 68.2954 0.251572 66.8427 0.418004 65.2172L1.33887 56.2229Z" fill="#1AD079"/>
<path d="M18.7173 64.9534L18.7469 64.6649C18.7769 64.6974 18.8136 64.7276 18.8568 64.7556C18.9011 64.7837 18.9476 64.8086 18.9964 64.8303C19.0463 64.8511 19.0966 64.8685 19.1472 64.8825C19.1978 64.8966 19.2449 64.9058 19.2886 64.9103C19.4392 64.9257 19.5543 64.9095 19.6338 64.8617C19.7143 64.813 19.76 64.7362 19.7707 64.6313C19.7765 64.5749 19.7689 64.5246 19.7479 64.4802C19.7279 64.436 19.6978 64.3946 19.6576 64.3561C19.6174 64.3167 19.5688 64.2783 19.5118 64.2411C19.4558 64.2029 19.3951 64.1628 19.3297 64.1208C19.2606 64.0764 19.1965 64.0321 19.1372 63.9877C19.0779 63.9434 19.0273 63.896 18.9854 63.8455C18.9434 63.7951 18.9118 63.7398 18.8904 63.6797C18.8702 63.6188 18.864 63.5494 18.872 63.4717C18.8817 63.3765 18.9111 63.2961 18.96 63.2304C19.009 63.1637 19.0699 63.1111 19.1426 63.0724C19.2152 63.0337 19.2959 63.0076 19.3847 62.9941C19.4744 62.9807 19.5645 62.9786 19.6548 62.9879C19.8608 63.009 20.0083 63.0491 20.0975 63.1083L20.0693 63.3837C19.9547 63.2856 19.8007 63.2266 19.6074 63.2068C19.5539 63.2014 19.4999 63.2017 19.4453 63.2079C19.3907 63.2131 19.3413 63.2262 19.2969 63.2472C19.2526 63.2682 19.2152 63.2973 19.1849 63.3344C19.1546 63.3715 19.1365 63.4188 19.1307 63.4761C19.1252 63.5295 19.1302 63.5767 19.1456 63.6175C19.1621 63.6585 19.1881 63.697 19.2236 63.733C19.2592 63.769 19.3032 63.8049 19.3554 63.8407C19.4087 63.8766 19.4699 63.9163 19.5391 63.9597C19.6101 64.0042 19.6771 64.0504 19.7399 64.098C19.8028 64.1457 19.8569 64.1969 19.9024 64.2516C19.9478 64.3063 19.982 64.3653 20.005 64.4285C20.029 64.4918 20.037 64.5623 20.029 64.64C20.0185 64.743 19.9891 64.8284 19.9409 64.8961C19.8938 64.9629 19.8335 65.0152 19.76 65.0528C19.6874 65.0905 19.6054 65.1145 19.5141 65.1248C19.4226 65.136 19.3273 65.1366 19.2282 65.1264C19.1952 65.1231 19.1547 65.116 19.1067 65.1052C19.0586 65.0953 19.0099 65.0825 18.9605 65.0666C18.9109 65.0518 18.8641 65.0347 18.8199 65.0154C18.7768 64.9953 18.7426 64.9746 18.7173 64.9534ZM21.6293 64.6434L20.5757 64.5355C20.5626 64.702 20.5941 64.8349 20.6704 64.934C20.7466 65.0331 20.8595 65.0903 21.0091 65.1056C21.1772 65.1228 21.3373 65.0832 21.4895 64.9869L21.4666 65.2113C21.3257 65.2931 21.1474 65.3229 20.9317 65.3009C20.7209 65.2793 20.5622 65.1948 20.4555 65.0474C20.349 64.8991 20.3083 64.702 20.3335 64.4562C20.3573 64.2241 20.4422 64.0418 20.5882 63.9095C20.7354 63.7764 20.9066 63.7198 21.1019 63.7398C21.2971 63.7597 21.4417 63.8384 21.5357 63.9756C21.6296 64.1128 21.6651 64.2937 21.6421 64.5181L21.6293 64.6434ZM21.4052 64.4158C21.4183 64.2777 21.3958 64.1669 21.3376 64.0834C21.2804 64 21.1935 63.9523 21.0769 63.9404C20.9642 63.9289 20.8644 63.9594 20.7774 64.032C20.6905 64.1045 20.6311 64.205 20.5993 64.3333L21.4052 64.4158ZM23.1914 64.8033L22.1378 64.6955C22.1247 64.862 22.1563 64.9948 22.2325 65.0939C22.3088 65.193 22.4217 65.2502 22.5713 65.2655C22.7394 65.2827 22.8995 65.2432 23.0517 65.1468L23.0287 65.3713C22.8878 65.453 22.7095 65.4829 22.4939 65.4608C22.2831 65.4392 22.1243 65.3547 22.0177 65.2074C21.9112 65.059 21.8705 64.862 21.8956 64.6162C21.9194 64.384 22.0043 64.2018 22.1504 64.0695C22.2975 63.9363 22.4687 63.8797 22.664 63.8997C22.8593 63.9197 23.0039 63.9983 23.0978 64.1355C23.1917 64.2728 23.2272 64.4536 23.2042 64.678L23.1914 64.8033ZM22.9673 64.5757C22.9805 64.4377 22.958 64.3269 22.8998 64.2434C22.8425 64.16 22.7556 64.1123 22.639 64.1003C22.5264 64.0888 22.4265 64.1193 22.3396 64.1919C22.2526 64.2645 22.1933 64.3649 22.1615 64.4932L22.9673 64.5757ZM24.6607 64.8492L24.5798 65.639L24.335 65.614L24.549 63.5243L25.1231 63.5831C25.3465 63.606 25.5139 63.6781 25.6252 63.7994C25.7374 63.9208 25.7834 64.0807 25.7631 64.2788C25.7428 64.477 25.6577 64.6322 25.5078 64.7445C25.3589 64.8569 25.1683 64.9012 24.9361 64.8774L24.6607 64.8492ZM24.7711 63.7709L24.6834 64.6277L24.9398 64.654C25.1089 64.6713 25.2415 64.6461 25.3378 64.5784C25.4351 64.5098 25.491 64.4051 25.5054 64.2642C25.5337 63.9883 25.3846 63.8337 25.0582 63.8003L24.7711 63.7709ZM26.882 64.6113C26.8435 64.575 26.7849 64.5528 26.7062 64.5447C26.6042 64.5343 26.5138 64.5736 26.435 64.6627C26.3572 64.752 26.3097 64.8796 26.2927 65.0458L26.2148 65.8064L25.9758 65.782L26.1286 64.2898L26.3676 64.3142L26.3361 64.6217L26.342 64.6223C26.3867 64.5209 26.447 64.4446 26.5229 64.3934C26.599 64.3413 26.6802 64.3197 26.7667 64.3286C26.8288 64.3349 26.8757 64.3466 26.9074 64.3636L26.882 64.6113ZM27.6335 65.987C27.413 65.9644 27.2438 65.8769 27.1259 65.7245C27.009 65.5711 26.9624 65.3794 26.986 65.1491C27.0116 64.8985 27.1002 64.7097 27.2516 64.5829C27.403 64.4561 27.5953 64.4046 27.8284 64.4284C28.0509 64.4512 28.2173 64.5375 28.3276 64.6872C28.4389 64.837 28.4821 65.0333 28.4573 65.2762C28.4329 65.5142 28.3458 65.6982 28.1961 65.8282C28.0474 65.9572 27.8599 66.0102 27.6335 65.987ZM27.7903 64.6278C27.6368 64.612 27.51 64.6521 27.4099 64.7478C27.3099 64.8426 27.2505 64.9818 27.2317 65.1654C27.2136 65.3423 27.2445 65.4863 27.3244 65.5975C27.4043 65.7088 27.52 65.7722 27.6716 65.7877C27.826 65.8035 27.9497 65.7656 28.0425 65.674C28.1363 65.5825 28.1926 65.4445 28.2115 65.2599C28.2306 65.0734 28.2036 64.9253 28.1304 64.8157C28.0582 64.7062 27.9448 64.6436 27.7903 64.6278ZM29.029 65.8766L29.0231 65.876L28.9308 66.778L28.6918 66.7536L28.9148 64.575L29.1538 64.5995L29.127 64.8618L29.1328 64.8624C29.2706 64.6762 29.4527 64.5947 29.6791 64.6179C29.8714 64.6376 30.0147 64.72 30.1088 64.8651C30.203 65.0093 30.2386 65.1935 30.2156 65.4179C30.1901 65.6676 30.1089 65.8615 29.972 65.9997C29.8353 66.1368 29.6615 66.1946 29.4507 66.1731C29.2573 66.1533 29.1168 66.0544 29.029 65.8766ZM29.0847 65.2742L29.0634 65.4826C29.0508 65.6059 29.0799 65.7149 29.1507 65.8096C29.2226 65.9033 29.3202 65.9565 29.4436 65.9691C29.5883 65.9839 29.7072 65.9402 29.8001 65.8378C29.894 65.7355 29.9511 65.5857 29.9713 65.3885C29.9883 65.2224 29.9632 65.0883 29.8961 64.9862C29.829 64.8841 29.7299 64.8263 29.5988 64.8129C29.4598 64.7987 29.3431 64.8358 29.2487 64.9243C29.1543 65.0118 29.0997 65.1285 29.0847 65.2742ZM31.7861 65.6833L30.7326 65.5754C30.7194 65.7419 30.751 65.8747 30.8272 65.9738C30.9035 66.0729 31.0164 66.1302 31.166 66.1455C31.3341 66.1627 31.4942 66.1231 31.6464 66.0268L31.6234 66.2512C31.4825 66.333 31.3043 66.3628 31.0886 66.3408C30.8778 66.3192 30.719 66.2347 30.6124 66.0873C30.5059 65.939 30.4652 65.7419 30.4903 65.4961C30.5141 65.2639 30.599 65.0817 30.7451 64.9494C30.8923 64.8162 31.0635 64.7597 31.2587 64.7797C31.454 64.7996 31.5986 64.8783 31.6925 65.0155C31.7865 65.1527 31.8219 65.3335 31.799 65.558L31.7861 65.6833ZM31.5621 65.4557C31.5752 65.3176 31.5527 65.2068 31.4945 65.1233C31.4372 65.0399 31.3503 64.9922 31.2338 64.9803C31.1211 64.9688 31.0213 64.9993 30.9343 65.0719C30.8474 65.1444 30.788 65.2449 30.7562 65.3732L31.5621 65.4557ZM32.9849 65.2362C32.9464 65.1998 32.8878 65.1776 32.8091 65.1696C32.7071 65.1591 32.6167 65.1985 32.5379 65.2876C32.46 65.3768 32.4126 65.5045 32.3956 65.6706L32.3177 66.4313L32.0787 66.4068L32.2315 64.9146L32.4705 64.9391L32.439 65.2465L32.4448 65.2471C32.4896 65.1457 32.5499 65.0694 32.6258 65.0183C32.7018 64.9662 32.7831 64.9446 32.8695 64.9534C32.9317 64.9598 32.9786 64.9714 33.0102 64.9884L32.9849 65.2362ZM33.8099 66.5693C33.7504 66.5946 33.6745 66.6026 33.5822 66.5931C33.3209 66.5664 33.2051 66.4073 33.235 66.1158L33.3254 65.2327L33.0689 65.2065L33.0898 65.0025L33.3463 65.0287L33.3836 64.6644L33.6305 64.6117L33.5852 65.0532L33.9612 65.0917L33.9403 65.2957L33.5644 65.2572L33.4783 66.098C33.468 66.1981 33.4777 66.2712 33.5073 66.3175C33.537 66.3637 33.5911 66.3908 33.6698 66.3989C33.7301 66.405 33.7837 66.3939 33.8308 66.3653L33.8099 66.5693ZM35.468 65.246L34.6044 66.9069C34.4504 67.2033 34.2626 67.3401 34.0411 67.3174C33.9789 67.3111 33.9276 67.2994 33.8871 67.2825L33.909 67.0683C33.9587 67.0911 34.005 67.1047 34.0477 67.109C34.1682 67.1214 34.2659 67.0587 34.3408 66.9211L34.4893 66.6506L34.0588 65.1017L34.3241 65.1288L34.6101 66.3185C34.6135 66.3335 34.6198 66.3725 34.6291 66.4353L34.6379 66.4361C34.6451 66.4133 34.6586 66.3774 34.6783 66.3284L35.2203 65.2206L35.468 65.246ZM36.4242 66.8517L36.6381 64.762L37.2152 64.8211C37.9516 64.8965 38.285 65.2737 38.2155 65.9528C38.1824 66.2753 38.0534 66.5242 37.8283 66.6995C37.6043 66.8739 37.3208 66.9435 36.9779 66.9084L36.4242 66.8517ZM36.8602 65.0086L36.6916 66.6553L37.0035 66.6872C37.2775 66.7152 37.4982 66.6637 37.6657 66.5326C37.8333 66.4016 37.9308 66.2015 37.9584 65.9324C38.0132 65.3971 37.7559 65.1003 37.1867 65.042L36.8602 65.0086ZM39.7542 66.4991L38.7007 66.3912C38.6875 66.5577 38.7191 66.6906 38.7953 66.7897C38.8716 66.8888 38.9845 66.946 39.1341 66.9613C39.3022 66.9785 39.4623 66.9389 39.6145 66.8426L39.5915 67.067C39.4507 67.1488 39.2724 67.1786 39.0567 67.1566C38.8459 67.135 38.6872 67.0505 38.5805 66.9031C38.474 66.7548 38.4333 66.5577 38.4585 66.3119C38.4822 66.0798 38.5672 65.8975 38.7132 65.7652C38.8604 65.6321 39.0316 65.5755 39.2268 65.5955C39.4221 65.6154 39.5667 65.6941 39.6606 65.8313C39.7546 65.9685 39.7901 66.1494 39.7671 66.3738L39.7542 66.4991ZM39.5302 66.2715C39.5433 66.1334 39.5208 66.0226 39.4626 65.9391C39.4054 65.8557 39.3185 65.808 39.2019 65.7961C39.0892 65.7846 38.9894 65.8151 38.9024 65.8877C38.8155 65.9602 38.7561 66.0607 38.7243 66.189L39.5302 66.2715ZM40.7405 67.2789C40.681 67.3042 40.6051 67.3121 40.5128 67.3027C40.2514 67.2759 40.1357 67.1168 40.1655 66.8254L40.2559 65.9423L39.9995 65.9161L40.0204 65.712L40.2768 65.7383L40.3141 65.374L40.561 65.3212L40.5158 65.7628L40.8918 65.8013L40.8709 66.0053L40.4949 65.9668L40.4088 66.8076C40.3986 66.9077 40.4083 66.9808 40.4379 67.027C40.4675 67.0733 40.5217 67.1004 40.6004 67.1085C40.6606 67.1146 40.7143 67.1034 40.7614 67.0749L40.7405 67.2789ZM42.1263 67.4355L41.8873 67.411L41.9112 67.1779L41.9053 67.1773C41.7831 67.3454 41.6209 67.4191 41.4189 67.3984C41.2702 67.3832 41.1577 67.3319 41.0812 67.2446C41.0057 67.1573 40.9746 67.0486 40.988 66.9184C41.0165 66.6396 41.1973 66.4942 41.5303 66.4821L41.9841 66.4653C42.0101 66.2117 41.9206 66.0745 41.7156 66.0535C41.5359 66.0351 41.3674 66.0797 41.2101 66.1872L41.2351 65.9424C41.3914 65.8642 41.5652 65.8349 41.7566 65.8545C42.1073 65.8904 42.2636 66.0939 42.2256 66.465L42.1263 67.4355ZM41.9646 66.6562L41.5996 66.6689C41.4872 66.6731 41.4009 66.6922 41.3404 66.7263C41.2801 66.7594 41.2448 66.8259 41.2346 66.926C41.2271 66.9989 41.2467 67.0613 41.2935 67.1132C41.3412 67.1642 41.4084 67.1941 41.4948 67.203C41.6133 67.2151 41.7152 67.1838 41.8004 67.1091C41.8867 67.0335 41.9363 66.9321 41.9494 66.8048L41.9646 66.6562ZM42.8905 65.6231C42.8478 65.6187 42.8129 65.6004 42.7857 65.5681C42.7586 65.5359 42.7473 65.4975 42.7519 65.4528C42.7565 65.4081 42.7753 65.3727 42.8084 65.3466C42.8416 65.3196 42.8796 65.3083 42.9223 65.3127C42.966 65.3171 43.0014 65.336 43.0284 65.3692C43.0565 65.4015 43.0683 65.44 43.0637 65.4847C43.0594 65.5274 43.0401 65.5623 43.0059 65.5892C42.9727 65.6162 42.9343 65.6275 42.8905 65.6231ZM42.8156 67.5061L42.5766 67.4816L42.7293 65.9894L42.9683 66.0139L42.8156 67.5061ZM43.5383 67.5801L43.2994 67.5556L43.5255 65.3464L43.7645 65.3709L43.5383 67.5801ZM43.9373 67.5664L43.9636 67.31C44.0839 67.4195 44.2223 67.4822 44.3787 67.4982C44.5885 67.5197 44.7006 67.4605 44.7149 67.3206C44.719 67.2808 44.7132 67.2463 44.6975 67.2172C44.6829 67.1873 44.6612 67.16 44.6323 67.1355C44.6043 67.111 44.5703 67.0884 44.5303 67.0676C44.4912 67.0459 44.4489 67.0234 44.4032 67.0001C44.3398 66.9671 44.2842 66.9349 44.2364 66.9035C44.1896 66.8712 44.1509 66.8368 44.1203 66.8003C44.0907 66.7629 44.0694 66.722 44.0563 66.6774C44.0442 66.633 44.041 66.5821 44.0469 66.5248C44.0541 66.4549 44.0764 66.3948 44.1139 66.3447C44.1516 66.2935 44.1989 66.2528 44.256 66.2223C44.3133 66.1908 44.3768 66.1694 44.4467 66.1579C44.5176 66.1465 44.5894 66.1445 44.6623 66.152C44.7915 66.1652 44.9048 66.1994 45.0022 66.2545L44.9775 66.4964C44.8751 66.4133 44.7525 66.3644 44.6096 66.3498C44.565 66.3452 44.5241 66.3464 44.4871 66.3534C44.4501 66.3595 44.4176 66.3704 44.3895 66.3861C44.3623 66.402 44.3401 66.4223 44.3229 66.447C44.3067 66.4709 44.297 66.4984 44.2938 66.5295C44.2898 66.5683 44.2933 66.6016 44.3042 66.6292C44.3161 66.6569 44.3346 66.6824 44.3597 66.7056C44.3848 66.7287 44.416 66.7506 44.4531 66.7711C44.4903 66.7916 44.5327 66.8141 44.5802 66.8386C44.6437 66.8706 44.7003 66.9029 44.7499 66.9355C44.7997 66.9671 44.8413 67.0018 44.8748 67.0395C44.9083 67.0764 44.9325 67.1176 44.9475 67.1633C44.9634 67.2091 44.9683 67.2621 44.9621 67.3224C44.9546 67.3962 44.9315 67.4586 44.8929 67.5097C44.8553 67.5608 44.8074 67.6015 44.7493 67.6319C44.6912 67.6623 44.6258 67.6826 44.5531 67.6928C44.4804 67.703 44.4052 67.7042 44.3275 67.6962C44.174 67.6805 44.0439 67.6372 43.9373 67.5664Z" fill="white"/>
</g>
<defs>
<clipPath id="clip0_270_201">
<rect x="6.96899" y="0.403961" width="62" height="68" rx="3.34843" transform="rotate(5.43363 6.96899 0.403961)" fill="white"/>
</clipPath>
</defs>
</svg>
