<svg width="59" height="19" viewBox="0 0 59 19" fill="none" xmlns="http://www.w3.org/2000/svg">
<g clip-path="url(#clip0_270_234)">
<rect y="5.52112" width="58" height="13" rx="2.95874" transform="rotate(-5.27643 0 5.52112)" fill="white"/>
<path d="M7.255 13.4329C6.52372 13.5004 5.91525 13.3136 5.42958 12.8724C4.94631 12.431 4.66902 11.8243 4.59773 11.0523C4.52111 10.2227 4.68418 9.54023 5.08692 9.00492C5.48966 8.4696 6.07705 8.16629 6.84908 8.09499C7.56118 8.02923 8.15635 8.21607 8.63461 8.65552C9.11526 9.09474 9.39135 9.70157 9.46287 10.476C9.54059 11.3176 9.37906 12.0035 8.97827 12.5338C8.57748 13.0641 8.00306 13.3638 7.255 13.4329ZM6.85641 8.64564C6.31455 8.69568 5.89263 8.93172 5.59066 9.35375C5.28869 9.77578 5.16704 10.3045 5.22572 10.9399C5.28439 11.5752 5.49591 12.072 5.86025 12.43C6.22677 12.7855 6.67497 12.9388 7.20485 12.8898C7.77069 12.8376 8.1996 12.6118 8.49157 12.2124C8.78355 11.8131 8.89887 11.2813 8.83754 10.6172C8.77465 9.93625 8.5678 9.42459 8.217 9.08219C7.86619 8.73978 7.41266 8.59426 6.85641 8.64564ZM13.1971 9.08291L12.0699 12.9012L11.4908 12.9546L9.7553 9.40076L10.4027 9.34098L11.5848 11.9304C11.6725 12.1206 11.7315 12.288 11.7618 12.4327L11.7762 12.4314C11.7831 12.2445 11.8061 12.0744 11.8451 11.9208L12.5749 9.14037L13.1971 9.08291ZM16.9772 10.7396L14.377 10.9797C14.4244 11.3888 14.5639 11.6951 14.7955 11.8986C15.0271 12.1021 15.3275 12.1868 15.6968 12.1527C16.1115 12.1144 16.4801 11.9425 16.8026 11.6371L16.8537 12.191C16.5517 12.4558 16.1346 12.6128 15.6023 12.662C15.082 12.71 14.6579 12.5812 14.3298 12.2753C14.0015 11.9671 13.8093 11.5097 13.7533 10.9031C13.7004 10.3301 13.8191 9.84881 14.1096 9.45928C14.4022 9.06712 14.7895 8.84879 15.2715 8.80428C15.7534 8.75978 16.1406 8.88119 16.4331 9.16852C16.7256 9.45586 16.8975 9.87645 16.9486 10.4303L16.9772 10.7396ZM16.3268 10.2955C16.293 9.95525 16.1858 9.69795 16.0053 9.5236C15.8271 9.34902 15.5942 9.27502 15.3065 9.30159C15.0284 9.32727 14.8014 9.44858 14.6256 9.66552C14.4497 9.88246 14.3539 10.1537 14.338 10.4792L16.3268 10.2955ZM19.6647 9.08771C19.5543 9.01811 19.402 8.99228 19.2078 9.01021C18.956 9.03346 18.756 9.17163 18.6077 9.42472C18.4617 9.67758 18.4077 10.009 18.4456 10.419L18.619 12.2963L18.0292 12.3508L17.689 8.66806L18.2789 8.61359L18.3489 9.37244L18.3633 9.37111C18.4233 9.10442 18.533 8.89117 18.6923 8.73137C18.8515 8.56917 19.0377 8.47822 19.2511 8.45851C19.4046 8.44434 19.5236 8.45028 19.6082 8.47632L19.6647 9.08771ZM23.1448 8.16421L22.0176 11.9825L21.4386 12.0359L19.703 8.48207L20.3504 8.42228L21.5326 11.0117C21.6203 11.2019 21.6793 11.3693 21.7096 11.514L21.7239 11.5127C21.7309 11.3258 21.7538 11.1557 21.7929 11.0021L22.5227 8.22167L23.1448 8.16421ZM23.9972 7.14245C23.8917 7.15219 23.7984 7.12453 23.7175 7.05946C23.6365 6.9944 23.5909 6.90672 23.5807 6.79643C23.5705 6.68614 23.5993 6.5916 23.667 6.5128C23.7344 6.43161 23.8209 6.38615 23.9264 6.3764C24.0343 6.36644 24.1288 6.39519 24.21 6.46265C24.2934 6.52749 24.3402 6.61506 24.3504 6.72535C24.3601 6.83085 24.33 6.9243 24.2602 7.00571C24.1927 7.0869 24.105 7.13248 23.9972 7.14245ZM24.7113 11.7337L24.1215 11.7882L23.7814 8.10542L24.3712 8.05095L24.7113 11.7337ZM28.7088 9.65616L26.1086 9.89629C26.156 10.3054 26.2955 10.6117 26.5271 10.8152C26.7587 11.0187 27.0591 11.1034 27.4283 11.0693C27.8431 11.031 28.2117 10.8591 28.5341 10.5537L28.5853 11.1075C28.2833 11.3724 27.8662 11.5294 27.3339 11.5786C26.8136 11.6266 26.3894 11.4977 26.0614 11.1919C25.7331 10.8837 25.5409 10.4263 25.4849 9.81969C25.432 9.24666 25.5507 8.76537 25.8412 8.37584C26.1338 7.98368 26.5211 7.76535 27.003 7.72084C27.485 7.67634 27.8722 7.79775 28.1647 8.08509C28.4572 8.37242 28.6291 8.79301 28.6802 9.34686L28.7088 9.65616ZM28.0584 9.21205C28.0246 8.87181 27.9174 8.61451 27.7369 8.44016C27.5587 8.26558 27.3258 8.19158 27.0381 8.21815C26.76 8.24383 26.533 8.36515 26.3572 8.58208C26.1813 8.79902 26.0855 9.07024 26.0696 9.39573L28.0584 9.21205ZM34.06 7.15617L33.296 10.9409L32.6846 10.9973L31.6823 8.43124C31.6443 8.3332 31.6146 8.22108 31.5932 8.09489L31.5788 8.09622C31.5796 8.1832 31.5647 8.29701 31.5342 8.43767L30.9547 11.1571L30.3649 11.2116L28.9099 7.63179L29.5285 7.57466L30.5467 10.2735C30.5784 10.3552 30.6054 10.4639 30.6276 10.5997L30.6564 10.5971C30.6538 10.4909 30.665 10.3762 30.6899 10.253L31.2836 7.41258L31.823 7.36276L32.8419 10.0688C32.8741 10.1553 32.9022 10.2639 32.9264 10.3947L32.9552 10.392C32.9513 10.2981 32.9615 10.1859 32.9858 10.0555L33.4774 7.20997L34.06 7.15617Z" fill="black"/>
</g>
<defs>
<clipPath id="clip0_270_234">
<rect y="5.52112" width="58" height="13" rx="2.95874" transform="rotate(-5.27643 0 5.52112)" fill="white"/>
</clipPath>
</defs>
</svg>
