<svg width="25" height="25" viewBox="0 0 25 25" fill="none" xmlns="http://www.w3.org/2000/svg">
<g clip-path="url(#clip0_1_29)">
<path d="M23.4097 12.007L12.9931 1.59031C12.8629 1.46097 12.6869 1.38837 12.5035 1.38837C12.32 1.38837 12.144 1.46097 12.0139 1.59031L1.59722 12.007C1.48345 12.1398 1.424 12.3107 1.43075 12.4855C1.43751 12.6603 1.50996 12.826 1.63364 12.9497C1.75731 13.0734 1.9231 13.1459 2.09788 13.1526C2.27265 13.1594 2.44354 13.0999 2.57639 12.9861L12.5 3.06253L22.4236 12.9931C22.5565 13.1069 22.7273 13.1663 22.9021 13.1596C23.0769 13.1528 23.2427 13.0803 23.3664 12.9567C23.49 12.833 23.5625 12.6672 23.5692 12.4924C23.576 12.3177 23.5165 12.1468 23.4028 12.0139L23.4097 12.007Z" fill="#1AD079"/>
<path d="M19.4444 22.2222H15.9722V15.2778H9.02778V22.2222H5.55555V12.5L4.16666 13.8889V22.2222C4.16666 22.5906 4.31299 22.9438 4.57346 23.2043C4.83393 23.4648 5.1872 23.6111 5.55555 23.6111H10.4167V16.6666H14.5833V23.6111H19.4444C19.8128 23.6111 20.1661 23.4648 20.4265 23.2043C20.687 22.9438 20.8333 22.5906 20.8333 22.2222V13.7222L19.4444 12.3333V22.2222Z" fill="black"/>
</g>
<defs>
<clipPath id="clip0_1_29">
<rect width="25" height="25" fill="white"/>
</clipPath>
</defs>
</svg>
