<svg width="78" height="21" viewBox="0 0 78 21" fill="none" xmlns="http://www.w3.org/2000/svg">
<rect x="1.50781" y="-0.0418091" width="77" height="17" rx="3.00928" transform="rotate(2.60375 1.50781 -0.0418091)" fill="white"/>
<path d="M15.7815 10.4348L16.9878 11.7557L16.5513 12.1542L15.3453 10.833C14.8581 11.1885 14.264 11.3669 13.6616 11.3386C12.1957 11.2719 11.0601 10.0282 11.1268 8.56232C11.1935 7.09647 12.4372 5.9609 13.9031 6.02756C15.3689 6.09422 16.5045 7.33799 16.4378 8.80384C16.4113 9.40639 16.1797 9.9818 15.7815 10.4348ZM15.1996 10.1889C15.5915 9.82086 15.8241 9.31418 15.8477 8.77701C15.8996 7.63602 15.0172 6.66956 13.8762 6.61768C12.7353 6.56579 11.7688 7.44817 11.7169 8.58916C11.665 9.73015 12.5474 10.6966 13.6884 10.7485C14.2255 10.7738 14.7512 10.5881 15.1533 10.2312L15.1996 10.1889Z" fill="#D9D9D9"/>
<path d="M20.4106 11.6307L20.4413 10.9547C20.5156 11.0265 20.605 11.0921 20.7095 11.1516C20.8163 11.2112 20.928 11.2631 21.0446 11.3071C21.1635 11.349 21.2829 11.383 21.4026 11.409C21.5223 11.4349 21.6334 11.4502 21.7358 11.4549C22.0886 11.471 22.3545 11.418 22.5334 11.2962C22.7147 11.1721 22.8109 10.9872 22.8221 10.7413C22.8281 10.6093 22.8037 10.493 22.749 10.3924C22.6965 10.2919 22.6209 10.1995 22.5221 10.1152C22.4234 10.0286 22.3051 9.94568 22.1673 9.86642C22.0319 9.78499 21.8852 9.69963 21.7273 9.61033C21.5605 9.51607 21.4052 9.42119 21.2613 9.32568C21.1173 9.23018 20.9932 9.12645 20.8888 9.01449C20.7844 8.90254 20.7034 8.77796 20.6457 8.64076C20.5905 8.50139 20.567 8.34065 20.5753 8.15855C20.5854 7.93547 20.6432 7.74421 20.7485 7.58477C20.8539 7.42305 20.9888 7.29232 21.153 7.19258C21.3172 7.09284 21.5018 7.0214 21.7067 6.97826C21.914 6.93522 22.1235 6.91852 22.3352 6.92814C22.8177 6.95009 23.1668 7.02413 23.3823 7.15026L23.3529 7.79559C23.073 7.58213 22.7065 7.4651 22.2535 7.4445C22.1283 7.43881 22.0025 7.44677 21.8761 7.46839C21.7497 7.48774 21.6363 7.52478 21.5357 7.57951C21.4351 7.63424 21.352 7.70687 21.2863 7.79741C21.2206 7.88794 21.1847 8.00036 21.1786 8.13466C21.1729 8.25986 21.1907 8.36901 21.2321 8.46214C21.2758 8.55536 21.3414 8.6416 21.429 8.72086C21.5167 8.80012 21.6238 8.87798 21.7503 8.95445C21.8791 9.03102 22.027 9.1153 22.1939 9.20728C22.3652 9.30175 22.5272 9.40036 22.68 9.50311C22.8327 9.60585 22.9656 9.71796 23.0787 9.83944C23.1918 9.96091 23.2792 10.0938 23.3411 10.238C23.4053 10.3823 23.4332 10.5456 23.4249 10.7277C23.4139 10.969 23.3568 11.1716 23.2535 11.3357C23.1527 11.4977 23.019 11.6273 22.8527 11.7247C22.6885 11.8221 22.5008 11.8889 22.2893 11.9249C22.0777 11.9631 21.8558 11.977 21.6236 11.9665C21.5462 11.9629 21.4509 11.9518 21.3377 11.9329C21.2244 11.9164 21.1092 11.8929 20.9919 11.8625C20.8746 11.8343 20.7632 11.8007 20.6578 11.7617C20.5547 11.7205 20.4723 11.6769 20.4106 11.6307ZM27.1533 10.5243L24.6847 10.412C24.6761 10.8017 24.7671 11.1069 24.9578 11.3277C25.1485 11.5485 25.4191 11.6669 25.7697 11.6828C26.1635 11.7007 26.5313 11.5874 26.8732 11.343L26.8493 11.8688C26.5318 12.0779 26.1204 12.1709 25.6151 12.148C25.1211 12.1255 24.7402 11.9496 24.4723 11.6204C24.2046 11.2889 24.0838 10.8352 24.11 10.2593C24.1347 9.71525 24.3085 9.27949 24.6313 8.95202C24.9565 8.62238 25.3479 8.46796 25.8054 8.48877C26.263 8.50958 26.6102 8.67363 26.8471 8.98094C27.0841 9.28824 27.1906 9.70481 27.1667 10.2306L27.1533 10.5243ZM26.6013 10.0236C26.6137 9.70024 26.5466 9.44514 26.4 9.25827C26.2557 9.07151 26.0469 8.97192 25.7738 8.9595C25.5097 8.94749 25.2812 9.03176 25.0882 9.21231C24.8953 9.39286 24.7702 9.63466 24.7131 9.93771L26.6013 10.0236ZM30.4332 12.285L29.8732 12.2595L29.898 11.7132L29.8844 11.7126C29.6218 12.1203 29.2537 12.3134 28.7803 12.2919C28.432 12.2761 28.163 12.1715 27.9734 11.9781C27.786 11.7848 27.6993 11.5356 27.7131 11.2306C27.7428 10.5773 28.1448 10.2147 28.9191 10.1427L29.974 10.0435C30.001 9.4494 29.7744 9.14143 29.2941 9.11958C28.8729 9.10043 28.4863 9.22655 28.1341 9.49794L28.1602 8.92432C28.5138 8.72142 28.9149 8.63017 29.3633 8.65057C30.185 8.68793 30.5761 9.14139 30.5366 10.0109L30.4332 12.285ZM29.9536 10.4908L29.105 10.5685C28.8438 10.5932 28.6451 10.6491 28.5089 10.7365C28.3727 10.8215 28.2993 10.9813 28.2886 11.2157C28.2808 11.3864 28.3348 11.5292 28.4505 11.6439C28.5685 11.7565 28.7289 11.8174 28.9314 11.8266C29.2092 11.8392 29.4423 11.7529 29.6309 11.5676C29.822 11.3801 29.9242 11.1373 29.9378 10.8391L29.9536 10.4908ZM33.4448 9.48626C33.3503 9.40669 33.2109 9.36271 33.0265 9.35433C32.7875 9.34346 32.5821 9.44702 32.4102 9.66503C32.2406 9.88314 32.147 10.1868 32.1293 10.5761L32.0482 12.3584L31.4882 12.3329L31.6472 8.83654L32.2072 8.86201L32.1744 9.58246L32.1881 9.58308C32.2789 9.34086 32.4094 9.15519 32.5795 9.02607C32.7497 8.89466 32.9361 8.83357 33.1387 8.84278C33.2844 8.84941 33.3952 8.87041 33.4712 8.9058L33.4448 9.48626ZM36.3099 12.3914C36.0339 12.5408 35.7116 12.6071 35.3428 12.5903C34.8443 12.5677 34.4488 12.3877 34.1562 12.0505C33.8659 11.7111 33.7326 11.2831 33.7561 10.7664C33.7823 10.1905 33.9683 9.73588 34.3142 9.40262C34.6602 9.06708 35.1086 8.91184 35.6595 8.93689C35.9668 8.95086 36.2351 9.02009 36.4644 9.14457L36.4383 9.71819C36.1871 9.52429 35.9135 9.42061 35.6176 9.40715C35.2602 9.3909 34.9607 9.50615 34.7191 9.75292C34.4799 9.99751 34.3508 10.3281 34.3319 10.7447C34.3132 11.1544 34.4055 11.4825 34.6087 11.7289C34.8142 11.9755 35.0979 12.107 35.4599 12.1235C35.7649 12.1374 36.0563 12.0491 36.3341 11.8587L36.3099 12.3914ZM40.0516 12.7224L39.4917 12.6969L39.5833 10.6824C39.6164 9.95396 39.3621 9.57743 38.8203 9.55279C38.5472 9.54037 38.3125 9.63577 38.1162 9.83897C37.92 10.0399 37.8144 10.3054 37.7994 10.6355L37.7093 12.6158L37.1494 12.5904L37.3848 7.41408L37.9447 7.43955L37.8419 9.69991L37.8556 9.70053C38.1443 9.27114 38.5367 9.06773 39.033 9.0903C39.8206 9.12611 40.1928 9.61863 40.1496 10.5678L40.0516 12.7224ZM45.5318 12.9716L44.9719 12.9461L44.9967 12.3998L44.983 12.3992C44.7204 12.8069 44.3524 13 43.8789 12.9785C43.5306 12.9627 43.2617 12.8581 43.072 12.6647C42.8847 12.4714 42.7979 12.2222 42.8118 11.9172C42.8415 11.2639 43.2435 10.9013 44.0177 10.8293L45.0726 10.7301C45.0996 10.136 44.873 9.82804 44.3927 9.8062C43.9716 9.78705 43.5849 9.91317 43.2327 10.1846L43.2588 9.61093C43.6125 9.40804 44.0135 9.31679 44.4619 9.33718C45.2837 9.37455 45.6748 9.82801 45.6352 10.6976L45.5318 12.9716ZM45.0523 11.1774L44.2036 11.2552C43.9425 11.2798 43.7438 11.3358 43.6075 11.4231C43.4713 11.5081 43.3979 11.6679 43.3873 11.9023C43.3795 12.0731 43.4335 12.2158 43.5491 12.3305C43.6672 12.4431 43.8275 12.504 44.0301 12.5132C44.3078 12.5259 44.541 12.4395 44.7296 12.2542C44.9206 12.0667 45.0229 11.8239 45.0364 11.5257L45.0523 11.1774ZM47.1469 13.045L46.5869 13.0195L46.8223 7.84326L47.3822 7.86872L47.1469 13.045ZM48.8404 13.122L48.2804 13.0966L48.5158 7.92027L49.0758 7.94574L48.8404 13.122ZM52.4529 13.2863L51.8929 13.2608L52.1283 8.08455L52.6883 8.11001L52.4529 13.2863ZM56.4697 11.8574L54.0011 11.7452C53.9925 12.1348 54.0835 12.4401 54.2742 12.6609C54.4649 12.8817 54.7355 13.0001 55.0861 13.016C55.4799 13.0339 55.8477 12.9206 56.1895 12.6761L56.1656 13.202C55.8482 13.4111 55.4368 13.5041 54.9315 13.4811C54.4375 13.4587 54.0566 13.2828 53.7887 12.9536C53.521 12.6221 53.4002 12.1684 53.4264 11.5925C53.4511 11.0484 53.6249 10.6127 53.9477 10.2852C54.2729 9.95555 54.6643 9.80114 55.1218 9.82194C55.5794 9.84275 55.9266 10.0068 56.1635 10.3141C56.4005 10.6214 56.507 11.038 56.4831 11.5638L56.4697 11.8574ZM55.9177 11.3568C55.9301 11.0334 55.863 10.7783 55.7164 10.5914C55.572 10.4047 55.3633 10.3051 55.0901 10.2927C54.8261 10.2807 54.5976 10.3649 54.4046 10.5455C54.2116 10.726 54.0866 10.9678 54.0295 11.2709L55.9177 11.3568ZM59.7496 13.6181L59.1896 13.5927L59.2144 13.0463L59.2008 13.0457C58.9382 13.4535 58.5701 13.6466 58.0967 13.6251C57.7484 13.6092 57.4794 13.5046 57.2898 13.3112C57.1024 13.118 57.0156 12.8688 57.0295 12.5638C57.0592 11.9105 57.4612 11.5478 58.2354 11.4758L59.2904 11.3767C59.3174 10.7826 59.0907 10.4746 58.6104 10.4528C58.1893 10.4336 57.8027 10.5597 57.4504 10.8311L57.4765 10.2575C57.8302 10.0546 58.2312 9.96334 58.6797 9.98374C59.5014 10.0211 59.8925 10.4746 59.853 11.3441L59.7496 13.6181ZM59.27 11.824L58.4214 11.9017C58.1602 11.9263 57.9615 11.9823 57.8252 12.0696C57.6891 12.1547 57.6157 12.3144 57.605 12.5489C57.5972 12.7196 57.6512 12.8623 57.7669 12.9771C57.8849 13.0897 58.0452 13.1506 58.2478 13.1598C58.5255 13.1724 58.7587 13.0861 58.9473 12.9008C59.1383 12.7133 59.2406 12.4704 59.2542 12.1723L59.27 11.824ZM63.7888 13.8018L63.2289 13.7763L63.2559 13.1822L63.2422 13.1816C62.9622 13.6205 62.5514 13.8277 62.0096 13.803C61.5703 13.783 61.2257 13.6111 60.9758 13.2873C60.7283 12.9612 60.6168 12.5285 60.6414 11.989C60.6677 11.4108 60.8344 10.9542 61.1416 10.6192C61.4488 10.2842 61.8449 10.1277 62.3297 10.1497C62.81 10.1716 63.1508 10.3764 63.3522 10.7642L63.3658 10.7648L63.4643 8.60005L64.0242 8.62552L63.7888 13.8018ZM63.3008 12.1955L63.3242 11.6799C63.337 11.3976 63.2546 11.1544 63.0768 10.9501C62.8991 10.7459 62.6668 10.6372 62.38 10.6242C62.0385 10.6086 61.7642 10.7216 61.5571 10.9631C61.3499 11.2046 61.2363 11.5462 61.2162 11.9878C61.1979 12.3907 61.2768 12.7136 61.4528 12.9565C61.6311 13.1973 61.8785 13.3249 62.1949 13.3393C62.5068 13.3535 62.7646 13.2523 62.9683 13.0357C63.1743 12.8193 63.2851 12.5392 63.3008 12.1955ZM64.7165 13.7174L64.7438 13.1165C65.0386 13.3557 65.3692 13.4836 65.7357 13.5003C66.2274 13.5227 66.4807 13.3699 66.4956 13.0422C66.4998 12.9488 66.4818 12.8693 66.4414 12.8036C66.4034 12.7357 66.3492 12.6751 66.2786 12.6217C66.2103 12.5684 66.1281 12.5202 66.032 12.4771C65.9383 12.4317 65.8366 12.3849 65.727 12.3366C65.575 12.2681 65.4413 12.2004 65.3257 12.1336C65.2125 12.0646 65.1178 11.9895 65.0417 11.9085C64.9679 11.8253 64.9128 11.7327 64.8764 11.6307C64.8422 11.5288 64.8282 11.4107 64.8343 11.2764C64.8418 11.1125 64.8859 10.9697 64.9667 10.8479C65.0476 10.7238 65.1526 10.6225 65.2816 10.544C65.4108 10.4632 65.556 10.4048 65.7173 10.3688C65.8809 10.3329 66.048 10.3188 66.2187 10.3266C66.5215 10.3403 66.79 10.405 67.0242 10.5206L66.9985 11.0874C66.7489 10.9073 66.4568 10.8096 66.1222 10.7944C66.0175 10.7896 65.9225 10.7978 65.8371 10.819C65.7518 10.838 65.6775 10.8677 65.6141 10.9081C65.5529 10.9487 65.5039 10.9989 65.4669 11.0588C65.4324 11.1165 65.4134 11.1818 65.4101 11.2547C65.406 11.3457 65.4185 11.4227 65.4475 11.4856C65.4789 11.5486 65.5253 11.6055 65.5869 11.6562C65.6485 11.7069 65.7239 11.7537 65.8132 11.7965C65.9025 11.8393 66.0041 11.8861 66.1181 11.937C66.2702 12.0032 66.4063 12.0709 66.5263 12.1403C66.6464 12.2073 66.7479 12.2827 66.8308 12.3663C66.9138 12.4476 66.9757 12.5405 67.0166 12.645C67.0597 12.7496 67.0781 12.8725 67.0717 13.0136C67.0638 13.1866 67.0183 13.3351 66.9351 13.459C66.8542 13.5831 66.7481 13.6843 66.6168 13.7628C66.4855 13.8412 66.3358 13.8971 66.1678 13.9305C65.9997 13.9639 65.8247 13.9765 65.6426 13.9682C65.2829 13.9519 64.9742 13.8683 64.7165 13.7174Z" fill="#D9D9D9"/>
</svg>
